<?xml version="1.0" encoding="utf-8"?>
<!-- Generator: Adobe Illustrator 22.1.0, SVG Export Plug-In . SVG Version: 6.00 Build 0)  -->
<svg version="1.1" id="Ebene_1" xmlns="http://www.w3.org/2000/svg" xmlns:xlink="http://www.w3.org/1999/xlink" x="0px" y="0px"
	 viewBox="0 0 332.6 111.5" style="enable-background:new 0 0 332.6 111.5;" xml:space="preserve">
<style type="text/css">
	.st0{fill:#F4F4F4;}
	.st1{fill:#A01010;}
	.st2{fill:#CF3B3B;}
	.st3{fill:#660516;}
</style>
<g>
	<path class="st0" d="M52.7,20.6v49.8h-10v-4.2c-2.6,3.1-6.4,4.7-11.2,4.7c-3.4,0-6.5-0.8-9.2-2.3c-2.8-1.5-4.9-3.7-6.5-6.5
		c-1.6-2.8-2.3-6.1-2.3-9.8c0-3.7,0.8-7,2.3-9.8c1.6-2.8,3.7-4.9,6.5-6.5c2.8-1.5,5.8-2.3,9.2-2.3c4.6,0,8.2,1.4,10.8,4.4V20.5
		L52.7,20.6L52.7,20.6z M39.8,59.6c1.8-1.8,2.6-4.3,2.6-7.3s-0.8-5.4-2.6-7.3c-1.8-1.8-3.9-2.7-6.5-2.7c-2.7,0-4.9,0.9-6.6,2.7
		c-1.8,1.8-2.6,4.3-2.6,7.3s0.8,5.4,2.6,7.3c1.8,1.8,3.9,2.7,6.6,2.7C35.9,62.3,38,61.4,39.8,59.6z"/>
	<path class="st0" d="M77.3,35.1c2.1-0.9,4.6-1.3,7.4-1.3v9.6c-1.2-0.1-1.9-0.2-2.3-0.2c-3,0-5.4,0.8-7,2.5
		c-1.7,1.7-2.5,4.2-2.5,7.5v17H62.3v-36h10V39C73.6,37.3,75.3,36,77.3,35.1z"/>
	<path class="st0" d="M97.5,68.6c-3-1.6-5.4-3.8-7-6.6c-1.7-2.8-2.5-6-2.5-9.6c0-3.6,0.8-6.8,2.5-9.6c1.7-2.8,4-5,7-6.6
		c3-1.6,6.5-2.3,10.2-2.3s7.2,0.8,10.2,2.3c3,1.6,5.4,3.8,7,6.6c1.7,2.8,2.5,6,2.5,9.6c0,3.6-0.8,6.8-2.5,9.6c-1.7,2.8-4,5-7,6.6
		c-3,1.6-6.4,2.3-10.2,2.3C104,70.9,100.6,70.1,97.5,68.6z M114.4,59.6c1.8-1.8,2.6-4.3,2.6-7.3s-0.8-5.4-2.6-7.3
		c-1.8-1.8-3.9-2.7-6.6-2.7s-4.9,0.9-6.6,2.7c-1.8,1.8-2.6,4.3-2.6,7.3s0.8,5.4,2.6,7.3c1.8,1.8,3.9,2.7,6.6,2.7
		S112.6,61.4,114.4,59.6z"/>
	<path class="st0" d="M161.3,37.7c3,2.7,4.5,6.7,4.5,12.1v20.6h-9.8v-4.5c-1.9,3.4-5.6,5-11,5c-2.8,0-5.2-0.5-7.2-1.4
		s-3.6-2.3-4.7-3.9c-1.1-1.7-1.6-3.5-1.6-5.6c0-3.4,1.3-6,3.8-7.9c2.5-1.9,6.5-2.8,11.7-2.8h8.3c0-2.3-0.7-4-2.1-5.3
		s-3.4-1.8-6.2-1.8c-1.9,0-3.8,0.3-5.7,0.9c-1.8,0.6-3.4,1.4-4.7,2.4l-3.8-7.3c1.9-1.4,4.4-2.4,7-3.2c2.8-0.8,5.6-1.2,8.5-1.2
		C154,33.8,158.4,35.1,161.3,37.7z M152.5,62.6c1.4-0.8,2.3-2,2.9-3.7v-3.7h-7.2c-4.3,0-6.5,1.4-6.5,4.2c0,1.3,0.5,2.4,1.6,3.2
		s2.5,1.2,4.4,1.2C149.5,63.9,151,63.4,152.5,62.6z"/>
</g>
<path class="st0" d="M185,85.9c-5.9-5.8-8.8-14.2-8.8-25V19.5h17.1v40.8c0,13.2,5.5,19.9,16.5,19.9c5.4,0,9.4-1.6,12.3-4.8
	c2.8-3.2,4.2-8.2,4.2-15.1V19.5h16.9v41.4c0,10.8-2.9,19.2-8.8,25s-14.1,8.8-24.7,8.8S190.8,91.8,185,85.9z"/>
<path class="st0" d="M304.1,22.7c4.8,2.2,8.5,5.3,11.1,9.3s3.9,8.8,3.9,14.3c0,5.4-1.3,10.2-3.9,14.2c-2.6,4.1-6.3,7.2-11.1,9.3
	c-4.8,2.1-10.5,3.2-17.1,3.2h-14.9v20.4H255v-74h32C293.6,19.5,299.3,20.6,304.1,22.7z M297.8,55.8c2.7-2.2,4-5.4,4-9.5
	c0-4.2-1.3-7.3-4-9.6c-2.7-2.2-6.6-3.3-11.7-3.3h-13.9v25.7h13.9C291.2,59.1,295.1,58,297.8,55.8z"/>
<rect x="13.6" y="75.5" class="st1" width="50.7" height="5.5"/>
<rect x="67.4" y="75.5" class="st2" width="50.7" height="5.5"/>
<rect x="121.2" y="75.5" class="st3" width="50.7" height="5.5"/>
</svg>
